<?xml version="1.0" standalone="no"?><!DOCTYPE svg PUBLIC "-//W3C//DTD SVG 1.1//EN" "http://www.w3.org/Graphics/SVG/1.1/DTD/svg11.dtd"><svg t="1572119184050" class="icon" viewBox="0 0 1024 1024" version="1.1" xmlns="http://www.w3.org/2000/svg" p-id="2178" xmlns:xlink="http://www.w3.org/1999/xlink" width="200" height="200"><defs><style type="text/css"></style></defs><path d="M547.929825 89.824561h-71.85965a17.964912 17.964912 0 1 0 0 35.929825h17.964913v71.859649h35.929824V125.754386h17.964913a17.964912 17.964912 0 1 0 0-35.929825z" fill="#F3D55B" p-id="2179"></path><path d="M512 215.578947c-59.445895 0-107.789474-48.343579-107.789474-107.789473s48.343579-107.789474 107.789474-107.789474 107.789474 48.343579 107.789474 107.789474-48.343579 107.789474-107.789474 107.789473z m0-179.649122c-39.630596 0-71.859649 32.229053-71.859649 71.859649s32.229053 71.859649 71.859649 71.859649 71.859649-32.229053 71.859649-71.859649-32.229053-71.859649-71.859649-71.859649z" fill="#D1D4D1" p-id="2180"></path><path d="M512 610.807018m-413.192982 0a413.192982 413.192982 0 1 0 826.385964 0 413.192982 413.192982 0 1 0-826.385964 0Z" fill="#ECF0F1" p-id="2181"></path><path d="M530.683509 969.386667a17.785263 17.785263 0 0 1-17.785263-16.887018c-0.359298-4.850526 1.257544-9.503439 4.491228-13.096421s7.545263-5.587088 12.395789-5.928421c11.317895-0.538947 22.635789-1.814456 33.594386-3.592982 9.880702-1.437193 19.042807 5.209825 20.659649 14.910877a18.324211 18.324211 0 0 1-14.910877 20.659649c-12.575439 1.958175-25.150877 3.233684-37.367017 3.952281l-1.077895-0.017965z m-71.141053-3.413334c-0.898246 0-1.796491-0.179649-2.694737-0.359298-12.575439-1.814456-24.971228-4.491228-36.82807-7.545263a17.659509 17.659509 0 0 1-10.958596-8.26386c-2.335439-4.13193-3.054035-8.982456-1.796492-13.671298a17.803228 17.803228 0 0 1 21.917193-12.755088c10.958596 2.694737 22.096842 5.030175 33.055439 6.844632 8.802807 1.239579 15.270175 8.784842 15.270175 17.767298 0 0.898246 0 1.814456-0.179649 2.694737a17.964912 17.964912 0 0 1-17.785263 15.28814z m175.517193-18.863158c-7.365614 0-14.012632-4.670877-16.707368-11.497543a18.50386 18.50386 0 0 1 0.359298-13.850948c1.97614-4.311579 5.569123-7.724912 9.880702-9.503438 10.599298-3.970246 21.018947-8.623158 30.899649-13.671299 8.802807-4.491228 19.761404-0.898246 24.252631 7.742878 1.257544 2.515088 1.97614 5.389474 1.976141 8.263859 0 5.569123-2.694737 10.940632-7.185965 14.192281h0.898245l-4.131929 2.137824c-10.958596 5.587088-22.276491 10.617263-33.774035 14.910878a15.126456 15.126456 0 0 1-6.467369 1.275508z m-277.198596-13.832982c-2.694737 0-5.569123-0.538947-8.084211-1.814456-11.317895-5.730807-22.276491-12.036491-32.69614-18.683509-3.952281-2.676772-6.647018-6.647018-7.724913-11.317895a17.44393 17.44393 0 0 1 2.515088-13.653333c5.209825-7.904561 16.707368-10.419649 24.791579-5.389474 9.341754 6.10807 19.222456 11.856842 29.282807 16.869053 6.10807 3.054035 9.880702 9.162105 9.880702 16.006737 0 2.856421-0.538947 5.569123-1.796491 8.263859-3.233684 5.946386-9.341754 9.719018-16.168421 9.719018z m369.538245-39.702456a18.054737 18.054737 0 0 1-17.785263-19.761404 17.246316 17.246316 0 0 1 6.467369-12.21614c8.26386-6.647018 16.527719-14.012632 24.43228-22.096842l0.359298-0.359298c0.179649 0 0.179649-0.179649 0.359299-0.179649 6.647018-6.844632 18.50386-6.844632 25.330526-0.197615a17.964912 17.964912 0 0 1 5.389474 12.755088c0 4.868491-1.97614 9.359719-5.389474 12.755088v0.197614c-0.179649 0-0.359298 0.179649-0.359298 0.359298-8.623158 8.443509-17.785263 16.707368-27.306667 24.61193-3.233684 2.694737-7.185965 4.13193-11.497544 4.13193z m-455.949473-22.653755c-4.850526 0-9.341754-1.958175-12.755088-5.209824-0.179649-0.179649-0.359298-0.520982-0.538948-0.718597h-0.179649c0-0.179649 0-0.179649-0.179649-0.359298-8.623158-8.443509-17.066667-17.785263-24.971228-27.665965a17.785263 17.785263 0 0 1-3.952281-13.294035c0.538947-4.670877 2.874386-8.982456 6.467369-12.036491a18.683509 18.683509 0 0 1 25.330526 2.694737c7.006316 8.605193 14.731228 17.066667 22.63579 25.132912 0.359298 0.197614 0.538947 0.377263 0.718596 0.718597l0.359298 0.197614c3.233684 3.395368 5.030175 7.724912 5.030176 12.377824 0 4.868491-1.97614 9.359719-5.209825 12.755088a17.821193 17.821193 0 0 1-12.755087 5.407438z m527.270175-56.930807c-3.592982 0-6.826667-0.898246-9.701053-2.874386-8.443509-5.389474-10.778947-16.527719-5.389473-24.791578 6.10807-9.341754 11.677193-19.204491 16.887017-29.282807 4.311579-8.605193 15.449825-12.377825 24.072983-7.886597a17.749333 17.749333 0 0 1 7.904561 24.072982c-5.569123 11.138246-11.856842 22.078877-18.683509 32.678176-3.413333 5.030175-8.982456 8.084211-15.090526 8.08421z m-590.865965-30.181052c-6.826667 0-12.934737-3.772632-15.988772-9.880702-5.748772-11.138246-10.778947-22.653754-15.270175-34.312982a17.964912 17.964912 0 0 1 10.419649-23.174737c8.982456-3.592982 19.761404 1.437193 23.174737 10.419649 4.13193 10.778947 8.802807 21.018947 13.653333 30.899649 1.437193 2.515088 1.97614 5.209825 1.97614 8.084211 0 6.826667-3.772632 12.934737-9.880701 15.988771-2.515088 1.257544-5.209825 1.97614-8.084211 1.976141z m633.981754-67.368421c-1.616842 0-3.054035-0.179649-4.670877-0.538948a18.162526 18.162526 0 0 1-12.755087-22.078877c2.874386-10.599298 5.209825-21.737544 7.006315-33.055438 1.437193-9.701053 10.599298-16.545684 20.48-15.108492a17.964912 17.964912 0 0 1 15.090527 17.785264c0 0.898246 0 1.97614-0.179649 2.874385-1.796491 12.036491-4.491228 24.432281-7.545264 36.648422-2.155789 7.886596-9.341754 13.473684-17.425965 13.473684zM174.978246 682.289404c-8.802807 0-16.34807-6.647018-17.785264-15.270176-1.97614-12.395789-3.233684-24.971228-3.772631-37.367017-0.359298-4.670877 1.257544-9.341754 4.491228-12.934737 3.233684-3.592982 7.724912-5.587088 12.395789-5.928421 9.880702-0.538947 18.324211 7.168 18.863158 17.066666 0.538947 11.120281 1.796491 22.45614 3.592983 33.576421a17.964912 17.964912 0 0 1-14.910877 20.48 14.713263 14.713263 0 0 1-2.874386 0.377264z m677.636491-72.021334c-9.521404 0-17.425965-7.545263-17.964912-17.066666-0.538947-11.138246-1.796491-22.45614-3.413334-33.594386-0.179649-0.898246-0.359298-1.796491-0.359298-2.676772 0-8.802807 6.467368-16.527719 15.270175-17.964913 9.701053-1.437193 19.042807 5.209825 20.48 15.090527 1.97614 12.036491 3.233684 24.61193 3.952281 37.367017 0.538947 9.701053-7.006316 18.324211-16.887017 18.863158l-1.077895-0.017965zM174.978246 575.595789c-0.898246 0-1.796491-0.179649-2.874386-0.377263a17.964912 17.964912 0 0 1-15.090527-17.767298c0-0.916211 0-1.814456 0.179649-2.694737 1.97614-12.395789 4.491228-24.791579 7.724913-36.82807 2.515088-9.359719 12.575439-15.28814 21.917193-12.755088a17.785263 17.785263 0 0 1 10.958596 8.443509c2.515088 4.113965 3.054035 8.982456 1.976141 13.653333-2.874386 10.419649-5.209825 21.557895-7.006316 33.055439-1.437193 8.802807-8.982456 15.270175-17.785263 15.270175z m655.539649-69.703859c-7.545263 0-14.192281-4.688842-16.887018-11.515509-3.592982-9.701053-7.904561-19.402105-12.575438-28.74386l-1.257544-2.155789a17.964912 17.964912 0 0 1 7.904561-24.252632c8.623158-4.311579 19.761404-0.718596 24.072983 7.886597 5.928421 11.317895 11.138246 22.833404 15.449824 34.312982 3.413333 9.162105-1.077895 19.581754-10.419649 23.174737a14.623439 14.623439 0 0 1-6.287719 1.293474z m-622.843509-31.977544c-2.694737 0-5.569123-0.718596-8.084211-1.97614a17.749333 17.749333 0 0 1-7.904561-24.072983c5.748772-11.138246 12.036491-22.078877 18.863158-32.516491 5.209825-8.084211 16.707368-10.599298 24.791579-5.407439 3.952281 2.694737 6.826667 6.647018 7.724912 11.33586 1.077895 4.670877 0.179649 9.503439-2.335438 13.473684-6.287719 9.503439-12.036491 19.402105-16.887018 29.282807l-0.359298 0.520983c-3.233684 5.766737-9.162105 9.359719-15.809123 9.359719z m569.30807-60.362105c-5.569123 0-10.599298-2.515088-14.012631-6.647018-7.006316-8.605193-14.37193-16.869053-22.096843-24.414316l-2.155789-2.155789h0.179649c-2.515088-3.233684-3.772632-7.185965-3.952281-11.317895 0-4.670877 1.97614-9.162105 5.389474-12.575438 6.647018-6.826667 18.50386-6.826667 25.330526-0.17965 0.179649 0.179649 0.179649 0.359298 0.359299 0.359299l0.359298 0.538947c8.443509 8.443509 16.707368 17.587649 24.432281 27.127018 3.054035 3.592982 4.491228 8.26386 3.95228 13.114386-0.538947 4.670877-2.694737 8.982456-6.467368 12.036491a17.749333 17.749333 0 0 1-11.317895 4.113965z m-506.610526-26.067088c-4.670877 0-9.162105-1.796491-12.575439-5.19186a17.964912 17.964912 0 0 1-5.389473-12.773052c0-4.670877 1.97614-9.162105 5.209824-12.377825l0.898246-0.898245c8.26386-8.461474 17.425965-16.725333 27.127017-24.432281 7.365614-6.10807 19.222456-4.850526 25.330527 2.515088a18.144561 18.144561 0 0 1-2.694737 25.330526c-8.623158 7.024281-17.066667 14.569544-24.971228 22.45614l-0.179649 0.197614a17.821193 17.821193 0 0 1-12.755088 5.173895z m427.205614-45.253614c-3.592982 0-6.826667-1.077895-9.880702-2.874386-8.982456-5.928421-18.50386-11.317895-28.025263-16.34807l-1.257544-0.520983a17.785263 17.785263 0 0 1-7.904561-24.090947 18.50386 18.50386 0 0 1 24.252631-8.066246c11.138246 5.730807 22.096842 12.036491 32.516491 18.863158 3.952281 2.515088 6.826667 6.647018 7.904562 11.317895 0.898246 4.670877 0 9.521404-2.515088 13.473684a17.964912 17.964912 0 0 1-15.090526 8.245895z m-340.794386-17.425965c-6.826667 0-12.934737-3.772632-16.168421-9.880702-1.257544-2.533053-1.796491-5.407439-1.796491-8.08421 0-6.826667 3.772632-12.952702 9.701052-16.006737 10.958596-5.730807 22.635789-10.778947 34.492632-15.270176 8.802807-3.413333 19.581754 1.257544 23.174737 10.24 1.616842 4.491228 1.437193 9.341754-0.359299 13.832983-1.97614 4.311579-5.569123 7.724912-10.06035 9.359719-10.419649 4.113965-20.659649 8.605193-30.360702 13.473684l-0.538948 0.359299c-2.515088 1.257544-5.209825 1.97614-8.08421 1.97614z m243.244912-25.869474c-1.616842 0-3.233684-0.179649-4.670877-0.538947-10.958596-2.856421-22.096842-5.209825-33.055439-7.006316a17.839158 17.839158 0 0 1-15.270175-17.785263c0-0.898246 0-1.796491 0.179649-2.676772a17.785263 17.785263 0 0 1 19.581754-15.090526l0.898246 0.179649c0.538947 0 0.898246 0 1.257544 0.179649 12.21614 1.97614 24.072982 4.491228 35.570526 7.545263 4.670877 1.257544 8.443509 4.13193 10.958597 8.26386 2.335439 4.13193 3.054035 8.982456 1.796491 13.653333a17.857123 17.857123 0 0 1-17.246316 13.27607z m-141.743158-7.185965c-8.982456 0-16.34807-6.305684-17.785263-15.108491-0.179649-0.898246-0.179649-1.796491-0.179649-2.676772-0.179649-8.802807 6.467368-16.527719 15.090526-17.964912 12.21614-1.814456 24.791579-3.251649 37.367018-3.772632 10.060351-0.898246 18.324211 7.006316 18.863158 16.869053a17.893053 17.893053 0 0 1-16.887018 18.881123c-11.497544 0.700632-22.815439 1.796491-33.594386 3.575017-1.077895 0.197614-1.97614 0.197614-2.874386 0.197614z" fill="#38454F" p-id="2182"></path><path d="M470.752561 652.988632a44.732632 44.732632 0 0 1 6.377544-68.536141l232.142597-175.607017c3.718737-2.533053 8.192 1.940211 5.658947 5.658947L539.306667 646.629053a44.732632 44.732632 0 0 1-68.554106 6.359579z" fill="#48A0DC" p-id="2183"></path></svg>