<?xml version="1.0" standalone="no"?><!DOCTYPE svg PUBLIC "-//W3C//DTD SVG 1.1//EN" "http://www.w3.org/Graphics/SVG/1.1/DTD/svg11.dtd"><svg t="1595607306634" class="icon" viewBox="0 0 1168 1024" version="1.1" xmlns="http://www.w3.org/2000/svg" p-id="2994" xmlns:xlink="http://www.w3.org/1999/xlink" width="228.125" height="200"><defs><style type="text/css"></style></defs><path d="M166.697674 238.139535h824.983389v552.82392H166.697674z" fill="#296AEE" p-id="2995"></path><path d="M250.046512 614.059801h654.883721c39.122924 0 71.44186 32.318937 71.44186 71.44186v8.504984c0 39.122924-32.318937 71.44186-71.44186 71.44186H250.046512c-39.122924 0-71.44186-32.318937-71.441861-71.44186v-8.504984c0-39.122924 32.318937-71.44186 71.441861-71.44186z" fill="#9BB9F7" p-id="2996"></path><path d="M768.850498 340.199336l-108.863787 214.325581-103.760797-136.079734-146.285715 309.581395h505.196014L768.850498 340.199336zM561.328904 464.372093l105.461794 130.976744 100.358804-190.511628 113.966777 299.375416-425.249169-1.700997 105.461794-238.139535z" fill="#FFFFFF" p-id="2997"></path><path d="M136.079734 57.833887h28.916944c6.803987 0 10.20598 5.10299 10.20598 10.20598v751.840532c0 6.803987-5.10299 10.20598-10.20598 10.20598H136.079734c-6.803987 0-10.20598-5.10299-10.20598-10.20598V68.039867c0-5.10299 5.10299-10.20598 10.20598-10.20598z m0 719.521595h966.166113c6.803987 0 11.906977 5.10299 11.906977 11.906976v30.617941c0 6.803987-5.10299 11.906977-11.906977 11.906976H136.079734c-6.803987 0-11.906977-5.10299-11.906977-11.906976v-30.617941c1.700997-6.803987 6.803987-11.906977 11.906977-11.906976z m852.199336-581.740864h28.916943c6.803987 0 10.20598 5.10299 10.20598 10.20598v750.139535c0 6.803987-5.10299 10.20598-10.20598 10.20598h-28.916943c-6.803987 0-10.20598-5.10299-10.20598-10.20598V205.820598c-1.700997-5.10299 3.401993-10.20598 10.20598-10.20598zM51.0299 195.614618h966.166113c6.803987 0 11.906977 5.10299 11.906977 11.906977v28.916943c0 6.803987-5.10299 11.906977-11.906977 11.906977H51.0299c-6.803987 0-11.906977-5.10299-11.906976-11.906977v-28.916943c0-6.803987 5.10299-11.906977 11.906976-11.906977z" fill="#296AEE" p-id="2998"></path><path d="M369.116279 314.684385c-57.833887 0-103.760797 45.92691-103.760797 103.760798 0 57.833887 45.92691 103.760797 103.760797 103.760797 57.833887 0 103.760797-45.92691 103.760797-103.760797 0-57.833887-45.92691-103.760797-103.760797-103.760798z m0 175.202658c-39.122924 0-71.44186-32.318937-71.44186-71.44186s32.318937-71.44186 71.44186-71.441861c39.122924 0 71.44186 32.318937 71.441861 71.441861s-32.318937 71.44186-71.441861 71.44186z" fill="#FFFFFF" p-id="2999"></path></svg>