<?xml version="1.0" standalone="no"?><!DOCTYPE svg PUBLIC "-//W3C//DTD SVG 1.1//EN" "http://www.w3.org/Graphics/SVG/1.1/DTD/svg11.dtd"><svg t="1570197544022" class="icon" viewBox="0 0 1024 1024" version="1.1" xmlns="http://www.w3.org/2000/svg" p-id="2154" xmlns:xlink="http://www.w3.org/1999/xlink" width="200" height="200"><defs><style type="text/css"></style></defs><path d="M814.994304 324.687918c7.469971 7.469971 7.469971 19.749375 0 27.219346L448.658739 718.345158c-3.888478 3.888478-8.697911 5.525732-13.712002 5.525732-5.01409 0-9.925852-1.944239-13.712002-5.525732L209.005696 506.218447c-7.469971-7.469971-7.469971-19.749375 0-27.219346 7.469971-7.469971 19.749375-7.469971 27.219346 0l198.41471 198.41471 352.623564-352.623564C795.244929 317.217947 807.319676 317.217947 814.994304 324.687918zM1013.409014 512.051164c0 276.491256-224.917758 501.409014-501.409014 501.409014s-501.409014-224.917758-501.409014-501.409014 224.917758-501.409014 501.409014-501.409014S1013.409014 235.559908 1013.409014 512.051164zM955.593485 512.051164c0-244.667133-198.926352-443.593485-443.593485-443.593485S68.508844 267.384031 68.508844 512.051164s198.926352 443.593485 443.593485 443.593485S955.593485 756.718297 955.593485 512.051164z" p-id="2155" fill="#ffffff"></path></svg>