<?xml version="1.0" standalone="no"?>
<svg
  width="600"
  height="600"
  viewBox="0 0 600 600"
  xmlns="http://www.w3.org/2000/svg"
>
  <g transform="translate(300,300)">
    <path d="M75.9,-112.3C104.3,-99.9,137.2,-88.8,160.1,-65.3C183,-41.8,195.9,-5.9,194,30C192.1,65.9,175.4,101.7,153.4,140.3C131.4,179,104.2,220.5,69.6,225.4C34.9,230.3,-7,198.6,-45.4,177.1C-83.8,155.6,-118.6,144.3,-143.4,121.2C-168.3,98.1,-183.1,63.3,-194.4,24.3C-205.7,-14.7,-213.3,-57.8,-193.1,-82.3C-172.8,-106.8,-124.5,-112.7,-87.7,-121.2C-50.8,-129.7,-25.4,-140.9,-0.8,-139.6C23.8,-138.3,47.6,-124.7,75.9,-112.3Z" fill="#FFB4BC" />
  </g>
</svg>
  