<?xml version="1.0" standalone="no"?><!DOCTYPE svg PUBLIC "-//W3C//DTD SVG 1.1//EN" "http://www.w3.org/Graphics/SVG/1.1/DTD/svg11.dtd"><svg t="1570197539281" class="icon" viewBox="0 0 1024 1024" version="1.1" xmlns="http://www.w3.org/2000/svg" p-id="1985" xmlns:xlink="http://www.w3.org/1999/xlink" width="200" height="200"><defs><style type="text/css"></style></defs><path d="M820.622364 512.051164c0 10.64215-8.697911 19.237734-19.237734 19.237734L222.717698 531.288898c-10.64215 0-19.237734-8.697911-19.237734-19.237734s8.697911-19.237734 19.237734-19.237734L801.282302 492.813431C811.924453 492.711102 820.622364 501.409014 820.622364 512.051164zM1013.409014 512.051164c0 276.491256-224.917758 501.409014-501.409014 501.409014s-501.409014-224.917758-501.409014-501.409014 224.917758-501.409014 501.409014-501.409014S1013.409014 235.559908 1013.409014 512.051164zM955.593485 512.051164c0-244.667133-198.926352-443.593485-443.593485-443.593485S68.508844 267.384031 68.508844 512.051164s198.926352 443.593485 443.593485 443.593485S955.593485 756.718297 955.593485 512.051164z" p-id="1986" fill="#ffffff"></path></svg>