<?xml version="1.0" standalone="no"?><!DOCTYPE svg PUBLIC "-//W3C//DTD SVG 1.1//EN" "http://www.w3.org/Graphics/SVG/1.1/DTD/svg11.dtd"><svg t="1595683658173" class="icon" viewBox="0 0 1024 1024" version="1.1" xmlns="http://www.w3.org/2000/svg" p-id="2690" xmlns:xlink="http://www.w3.org/1999/xlink" width="200" height="200"><defs><style type="text/css"></style></defs><path d="M213.333333 213.333333a42.666667 42.666667 0 0 0 0 85.333334h597.333334a42.666667 42.666667 0 1 0 0-85.333334H213.333333z m0 170.666667a42.666667 42.666667 0 0 0 0 85.333333h341.333334a42.666667 42.666667 0 1 0 0-85.333333H213.333333z m-42.666666 213.333333a42.666667 42.666667 0 0 1 42.666666-42.666666h512a42.666667 42.666667 0 1 1 0 85.333333H213.333333a42.666667 42.666667 0 0 1-42.666666-42.666667z m42.666666 128a42.666667 42.666667 0 1 0 0 85.333334h426.666667a42.666667 42.666667 0 1 0 0-85.333334H213.333333z" p-id="2691" fill="#ffffff"></path></svg>