<?xml version="1.0" encoding="iso-8859-1"?>
<!-- Generator: Adobe Illustrator 19.0.0, SVG Export Plug-In . SVG Version: 6.00 Build 0)  -->
<svg version="1.1" id="Capa_1" xmlns="http://www.w3.org/2000/svg" xmlns:xlink="http://www.w3.org/1999/xlink" x="0px" y="0px"
	 viewBox="0 0 512 512" style="enable-background:new 0 0 512 512;" xml:space="preserve">
<g>
	<path style="fill:#7F8C8D;" d="M26.483,102.93V35.31C26.48,25.945,30.2,16.962,36.822,10.339S52.427-0.003,61.793,0h388.414
		c9.366-0.003,18.348,3.717,24.971,10.339c6.622,6.623,10.342,15.605,10.339,24.971V476.69c0.003,9.366-3.717,18.348-10.339,24.971
		c-6.623,6.622-15.605,10.342-24.971,10.339H61.793c-9.366,0.003-18.348-3.717-24.971-10.339
		c-6.623-6.623-10.342-15.605-10.339-24.971V102.93z"/>
	<path style="fill:#BDC3C7;" d="M141.241,44.138h229.517C448.764,44.138,512,107.374,512,185.379v141.241
		c0,78.005-63.236,141.241-141.241,141.241H141.241C63.236,467.862,0,404.626,0,326.621V185.379
		C0,107.374,63.236,44.138,141.241,44.138z"/>
	<path style="fill:#4FBA6F;" d="M414.897,167.724v176.552c-0.012,4.807-1.989,9.4-5.473,12.712
		c-3.252,3.187-7.629,4.964-12.182,4.943H114.759c-4.553,0.02-8.93-1.756-12.182-4.943c-3.484-3.312-5.461-7.905-5.473-12.712
		V167.724c0.012-4.807,1.989-9.4,5.473-12.712c3.251-3.187,7.629-4.964,12.182-4.943h282.483c4.553-0.02,8.931,1.756,12.182,4.943
		C412.907,158.324,414.885,162.917,414.897,167.724L414.897,167.724z"/>
	<g>
		<rect x="251.586" y="150.069" style="fill:#E6E7E8;" width="8.828" height="211.862"/>
		<path style="fill:#E6E7E8;" d="M256,216.276c-21.939,0-39.724,17.785-39.724,39.724s17.785,39.724,39.724,39.724
			s39.724-17.785,39.724-39.724C295.691,234.075,277.925,216.309,256,216.276z M256,286.897c-17.064,0-30.897-13.833-30.897-30.897
			s13.833-30.897,30.897-30.897s30.897,13.833,30.897,30.897C286.878,273.056,273.056,286.878,256,286.897z"/>
		<path style="fill:#E6E7E8;" d="M132.414,216.717v-4.855c0.012-1.174-0.45-2.304-1.28-3.134c-0.83-0.83-1.96-1.292-3.134-1.28
			H97.103v8.828h26.483v79.448H97.103v8.828H128c1.174,0.012,2.304-0.45,3.134-1.28c0.83-0.83,1.292-1.96,1.28-3.134v-4.855
			c20.08-2.146,35.309-19.089,35.309-39.283S152.494,218.863,132.414,216.717z M132.414,286.455v-60.91
			c15.186,2.13,26.482,15.121,26.482,30.455S147.6,284.326,132.414,286.455L132.414,286.455z M132.414,216.717v-4.855
			c0.012-1.174-0.45-2.304-1.28-3.134c-0.83-0.83-1.96-1.292-3.134-1.28H97.103v8.828h26.483v79.448H97.103v8.828H128
			c1.174,0.012,2.304-0.45,3.134-1.28c0.83-0.83,1.292-1.96,1.28-3.134v-4.855c20.08-2.146,35.309-19.089,35.309-39.283
			S152.494,218.863,132.414,216.717L132.414,216.717z M132.414,286.455v-60.91c15.186,2.13,26.482,15.121,26.482,30.455
			S147.6,284.326,132.414,286.455L132.414,286.455z"/>
		<path style="fill:#E6E7E8;" d="M414.897,216.276v-8.828H384c-1.174-0.012-2.304,0.45-3.134,1.28c-0.83,0.83-1.292,1.96-1.28,3.134
			v4.855c-20.08,2.146-35.309,19.089-35.309,39.283s15.229,37.137,35.309,39.283v4.855c-0.012,1.174,0.45,2.304,1.28,3.134
			c0.83,0.83,1.96,1.292,3.134,1.28h30.897v-8.828h-26.483v-79.448H414.897z M379.586,286.455
			c-15.186-2.13-26.482-15.121-26.482-30.455s11.297-28.326,26.482-30.455V286.455z"/>
	</g>
	<path style="fill:#802F34;" d="M167.724,79.448v70.621h-52.966c-4.553-0.02-8.931,1.756-12.182,4.943l-37.164-43.432
		c19.847-20.589,47.232-32.194,75.829-32.132H167.724z"/>
	<path style="fill:#CC4B4C;" d="M102.577,155.012c-3.484,3.312-5.461,7.905-5.473,12.712V256H35.31v-70.621
		c-0.024-27.594,10.786-54.094,30.102-73.799L102.577,155.012z"/>
	<path style="fill:#802F34;" d="M102.577,356.988l-37.164,43.432c-19.316-19.705-30.126-46.205-30.102-73.799V256h61.793v88.276
		C97.115,349.083,99.093,353.676,102.577,356.988L102.577,356.988z"/>
	<path style="fill:#CC4B4C;" d="M167.724,361.931v70.621h-26.483c-28.597,0.061-55.982-11.543-75.829-32.132l37.164-43.432
		c3.252,3.187,7.629,4.964,12.182,4.943H167.724z"/>
	<path style="fill:#802F34;" d="M476.69,256v70.621c0.024,27.594-10.786,54.094-30.102,73.799l-37.164-43.432
		c3.484-3.312,5.461-7.905,5.473-12.712V256H476.69z"/>
	<path style="fill:#CC4B4C;" d="M476.69,185.379V256h-61.793v-88.276c-0.012-4.807-1.989-9.4-5.473-12.712l37.164-43.432
		C465.904,131.286,476.713,157.786,476.69,185.379z"/>
	<path style="fill:#802F34;" d="M446.588,111.581l-37.164,43.432c-3.252-3.187-7.629-4.964-12.182-4.943h-52.966V79.448h26.483
		C399.356,79.387,426.741,90.992,446.588,111.581z"/>
	<path style="fill:#CC4B4C;" d="M446.588,400.419c-19.847,20.589-47.232,32.194-75.829,32.132h-26.483v-70.621h52.966
		c4.553,0.02,8.93-1.756,12.182-4.943L446.588,400.419z"/>
	<rect x="167.724" y="79.448" style="fill:#C03A2B;" width="176.552" height="70.621"/>
	<g>
		<rect x="167.724" y="101.517" style="fill:#E64C3C;" width="176.552" height="8.828"/>
		<rect x="167.724" y="118.802" style="fill:#E64C3C;" width="176.552" height="8.828"/>
	</g>
	<rect x="167.724" y="361.931" style="fill:#C03A2B;" width="176.552" height="70.621"/>
	<g>
		<rect x="167.724" y="384" style="fill:#E64C3C;" width="176.552" height="8.828"/>
		<rect x="167.724" y="402.167" style="fill:#E64C3C;" width="176.552" height="8.828"/>
	</g>
</g>
<g>
</g>
<g>
</g>
<g>
</g>
<g>
</g>
<g>
</g>
<g>
</g>
<g>
</g>
<g>
</g>
<g>
</g>
<g>
</g>
<g>
</g>
<g>
</g>
<g>
</g>
<g>
</g>
<g>
</g>
</svg>
