<?xml version="1.0" encoding="UTF-8"?>
<svg    width="737.71704"
   height="922.14575" xmlns="http://www.w3.org/2000/svg">
<defs
     id="defs2998" />
  <g
     transform="translate(0.28696795,0.13926085)"
     id="layer1">
    <g
       transform="matrix(2.7109041,0,0,-2.7109041,61.189614,845.16103)"
       id="g2861">
      <g
         id="g2863">
        <path
           d="m -22.67752,-28.3468 0,340.1617 272.12952,0 0,-340.1617 -272.12952,0 z"
           id="path2865"
           style="fill:#232323;fill-opacity:1;fill-rule:nonzero;stroke:none" />
      </g>
      <g
         id="g2867">
        <path
           d="m 0,-0.56705 0,284.03515 226.77448,0 0,-283.4681 -227.34153,0"
           id="path2869"
           style="fill:none;stroke:rgba(255,255,255,.3);stroke-width:1;stroke-linecap:butt;stroke-linejoin:miter;stroke-miterlimit:10;stroke-opacity:1;stroke-dasharray:none" />
      </g>
      <g
         id="g2871">
        <path
           d="m 0,141.73404 226.77448,0"
           id="path2873"
           style="fill:none;stroke:rgba(255,255,255,.3);stroke-width:1;stroke-linecap:butt;stroke-linejoin:miter;stroke-miterlimit:10;stroke-opacity:1;stroke-dasharray:none" />
      </g>
      <g
         id="g2875">
        <path
           d="m 139.32436,141.73404 c 0,14.32486 -11.61228,25.93713 -25.93712,25.93713 -14.32486,0 -25.93714,-11.61227 -25.93714,-25.93713 0,-14.32486 11.61228,-25.93714 25.93714,-25.93714 14.32484,0 25.93712,11.61228 25.93712,25.93714 z"
           id="path2877"
           style="fill:none;stroke:rgba(255,255,255,.3);stroke-width:1;stroke-linecap:butt;stroke-linejoin:miter;stroke-miterlimit:10;stroke-opacity:1;stroke-dasharray:none" />
      </g>
      <g
         id="g2879">
        <path
           d="m 114.2376,141.73404 c 0,0.46965 -0.38071,0.85037 -0.85036,0.85037 -0.46965,0 -0.85037,-0.38072 -0.85037,-0.85037 0,-0.46965 0.38072,-0.85037 0.85037,-0.85037 0.46965,0 0.85036,0.38072 0.85036,0.85037 z"
           id="path2881"
           style="fill:rgba(255,255,255,.3);fill-opacity:1;fill-rule:nonzero;stroke:rgba(255,255,255,.3);stroke-width:1;stroke-linecap:butt;stroke-linejoin:miter;stroke-miterlimit:10;stroke-opacity:1;stroke-dasharray:none" />
      </g>
      <g
         id="g2883">
        <path
           d="M 2.83484,0 C 2.83484,1.56564 1.56564,2.83484 0,2.83484"
           id="path2885"
           style="fill:none;stroke:rgba(255,255,255,.3);stroke-width:1;stroke-linecap:butt;stroke-linejoin:miter;stroke-miterlimit:10;stroke-opacity:1;stroke-dasharray:none" />
      </g>
      <g
         id="g2887">
        <path
           d="m 226.77448,2.83484 c -1.56566,0 -2.83486,-1.2692 -2.83486,-2.83484"
           id="path2889"
           style="fill:none;stroke:rgba(255,255,255,.3);stroke-width:1;stroke-linecap:butt;stroke-linejoin:miter;stroke-miterlimit:10;stroke-opacity:1;stroke-dasharray:none" />
      </g>
      <g
         id="g2891">
        <path
           d="m 223.9396,283.4681 c 0,-1.56566 1.2692,-2.83486 2.83486,-2.83486"
           id="path2893"
           style="fill:none;stroke:rgba(255,255,255,.3);stroke-width:1;stroke-linecap:butt;stroke-linejoin:miter;stroke-miterlimit:10;stroke-opacity:1;stroke-dasharray:none" />
      </g>
      <g
         id="g2895">
        <path
           d="m 0,280.63322 c 1.56564,0 2.83484,1.2692 2.83484,2.83486"
           id="path2897"
           style="fill:none;stroke:rgba(255,255,255,.3);stroke-width:1;stroke-linecap:butt;stroke-linejoin:miter;stroke-miterlimit:10;stroke-opacity:1;stroke-dasharray:none" />
      </g>
      <g
         id="g2899">
        <path
           d="m 56.69362,0 0,46.77203 113.38724,0 0,-46.77203"
           id="path2901"
           style="fill:none;stroke:rgba(255,255,255,.3);stroke-width:1;stroke-linecap:butt;stroke-linejoin:miter;stroke-miterlimit:10;stroke-opacity:1;stroke-dasharray:none" />
      </g>
      <g
         id="g2903">
        <path
           d="m 87.87527,0 0,15.59082 51.0239,0 0,-15.59082"
           id="path2905"
           style="fill:none;stroke:rgba(255,255,255,.3);stroke-width:1;stroke-linecap:butt;stroke-linejoin:miter;stroke-miterlimit:10;stroke-opacity:1;stroke-dasharray:none" />
      </g>
      <g
         id="g2907">
        <path
           d="m 92.55229,46.77203 c 5.57599,7.39969 14.67948,11.2636 23.87557,10.13447 6.98214,-0.85723 13.32,-4.51652 17.55354,-10.13447"
           id="path2909"
           style="fill:none;stroke:rgba(255,255,255,.3);stroke-width:1;stroke-linecap:butt;stroke-linejoin:miter;stroke-miterlimit:10;stroke-opacity:1;stroke-dasharray:none" />
      </g>
      <g
         id="g2911">
        <path
           d="m 114.2376,31.18166 c 0,0.46964 -0.38071,0.85035 -0.85036,0.85035 -0.46965,0 -0.85037,-0.38071 -0.85037,-0.85035 0,-0.46966 0.38072,-0.85038 0.85037,-0.85038 0.46965,0 0.85036,0.38072 0.85036,0.85038 z"
           id="path2913"
           style="fill:rgba(255,255,255,.3);fill-opacity:1;fill-rule:nonzero;stroke:rgba(255,255,255,.3);stroke-width:1;stroke-linecap:butt;stroke-linejoin:miter;stroke-miterlimit:10;stroke-opacity:1;stroke-dasharray:none" />
      </g>
      <g
         id="g2915">
        <path
           d="m 103.46567,0 0,-5.66927 19.84312,0 0,5.66927"
           id="path2917"
           style="fill:none;stroke:rgba(255,255,255,.3);stroke-width:1;stroke-linecap:butt;stroke-linejoin:miter;stroke-miterlimit:10;stroke-opacity:1;stroke-dasharray:none" />
      </g>
      <g
         id="g2919">
        <path
           d="m 56.69362,283.4681 0,-46.77207 113.38724,0 0,46.77207"
           id="path2921"
           style="fill:none;stroke:rgba(255,255,255,.3);stroke-width:1;stroke-linecap:butt;stroke-linejoin:miter;stroke-miterlimit:10;stroke-opacity:1;stroke-dasharray:none" />
      </g>
      <g
         id="g2923">
        <path
           d="m 87.87527,283.4681 0,-15.59086 51.0239,0 0,15.59086"
           id="path2925"
           style="fill:none;stroke:rgba(255,255,255,.3);stroke-width:1;stroke-linecap:butt;stroke-linejoin:miter;stroke-miterlimit:10;stroke-opacity:1;stroke-dasharray:none" />
      </g>
      <g
         id="g2927">
        <path
           d="m 92.55229,236.69603 c 5.57599,-7.39969 14.67948,-11.2636 23.87557,-10.13446 6.98214,0.85723 13.32,4.51653 17.55354,10.13446"
           id="path2929"
           style="fill:none;stroke:rgba(255,255,255,.3);stroke-width:1;stroke-linecap:butt;stroke-linejoin:miter;stroke-miterlimit:10;stroke-opacity:1;stroke-dasharray:none" />
      </g>
      <g
         id="g2931">
        <path
           d="m 114.2376,252.28642 c 0,0.46965 -0.38071,0.85036 -0.85036,0.85036 -0.46965,0 -0.85037,-0.38071 -0.85037,-0.85036 0,-0.46965 0.38072,-0.85037 0.85037,-0.85037 0.46965,0 0.85036,0.38072 0.85036,0.85037 z"
           id="path2933"
           style="fill:rgba(255,255,255,.3);fill-opacity:1;fill-rule:nonzero;stroke:rgba(255,255,255,.3);stroke-width:1;stroke-linecap:butt;stroke-linejoin:miter;stroke-miterlimit:10;stroke-opacity:1;stroke-dasharray:none" />
      </g>
      <g
         id="g2935">
        <path
           d="m 103.46567,283.4681 0,5.66926 19.84312,0 0,-5.66926"
           id="path2937"
           style="fill:none;stroke:rgba(255,255,255,.3);stroke-width:1;stroke-linecap:butt;stroke-linejoin:miter;stroke-miterlimit:10;stroke-opacity:1;stroke-dasharray:none" />
      </g>
    </g>
  </g>
</svg>