<?xml version="1.0" standalone="no"?><!DOCTYPE svg PUBLIC "-//W3C//DTD SVG 1.1//EN" "http://www.w3.org/Graphics/SVG/1.1/DTD/svg11.dtd"><svg t="1572119150761" class="icon" viewBox="0 0 1024 1024" version="1.1" xmlns="http://www.w3.org/2000/svg" p-id="2050" xmlns:xlink="http://www.w3.org/1999/xlink" width="200" height="200"><defs><style type="text/css"></style></defs><path d="M164.048593 739.783111l-30.340741 22.755556a18.962963 18.962963 0 1 0 22.755555 30.34074l30.340741-22.755555a18.962963 18.962963 0 1 0-22.755555-30.340741zM215.495111 378.292148l-26.832592-26.813629a18.962963 18.962963 0 0 0-26.81363 26.832592l26.832592 26.81363a18.906074 18.906074 0 0 0 26.81363-0.018963 18.944 18.944 0 0 0 0-26.81363zM246.518519 506.064593a18.962963 18.962963 0 0 0 18.962962-18.962963v-37.925926a18.962963 18.962963 0 1 0-37.925925 0v37.925926a18.962963 18.962963 0 0 0 18.962963 18.962963zM246.518519 619.84237a18.962963 18.962963 0 0 0 18.962962-18.962963v-37.925926a18.962963 18.962963 0 1 0-37.925925 0v37.925926a18.962963 18.962963 0 0 0 18.962963 18.962963zM135.035259 297.851259l-26.813629-26.813629a18.944 18.944 0 1 0-26.81363 26.813629l26.81363 26.81363a18.906074 18.906074 0 0 0 26.813629 0 18.944 18.944 0 0 0 0-26.81363zM942.592 271.03763a18.944 18.944 0 0 0-26.81363 0l-26.813629 26.813629a18.944 18.944 0 1 0 26.813629 26.81363l26.81363-26.81363a18.944 18.944 0 0 0 0-26.813629zM895.051852 752.753778l-32.161185-20.100741a18.962963 18.962963 0 0 0-20.119704 32.161185l32.161185 20.100741a18.925037 18.925037 0 0 0 26.130963-6.030222 18.944 18.944 0 0 0-6.011259-26.130963zM777.481481 619.84237a18.962963 18.962963 0 0 0 18.962963-18.962963v-37.925926a18.962963 18.962963 0 1 0-37.925925 0v37.925926a18.962963 18.962963 0 0 0 18.962962 18.962963zM862.151111 378.311111a18.962963 18.962963 0 1 0-26.81363-26.832592l-26.832592 26.813629a18.962963 18.962963 0 0 0 26.81363 26.851556l26.832592-26.832593zM777.481481 506.064593a18.962963 18.962963 0 0 0 18.962963-18.962963v-37.925926a18.962963 18.962963 0 1 0-37.925925 0v37.925926a18.962963 18.962963 0 0 0 18.962962 18.962963zM798.568296 692.451556l-2.123852-1.327408v-14.392889a18.962963 18.962963 0 1 0-37.925925 0V701.62963a18.962963 18.962963 0 0 0 8.912592 16.080592l11.036445 6.902519a18.925037 18.925037 0 0 0 26.130963-6.030222 18.962963 18.962963 0 0 0-6.030223-26.130963zM398.222222 682.666667h-37.925926a18.962963 18.962963 0 1 0 0 37.925926h37.925926a18.962963 18.962963 0 1 0 0-37.925926zM493.037037 682.666667h-18.962963a18.962963 18.962963 0 1 0 0 37.925926h18.962963a18.962963 18.962963 0 1 0 0-37.925926zM284.444444 682.666667h-18.962963v-5.935408a18.962963 18.962963 0 1 0-37.925925 0v15.416889l-2.806519 2.123852a18.962963 18.962963 0 1 0 22.755556 30.340741l5.328592-4.020148H284.444444a18.962963 18.962963 0 1 0 0-37.925926zM701.62963 682.666667h-37.925926a18.962963 18.962963 0 1 0 0 37.925926h37.925926a18.962963 18.962963 0 1 0 0-37.925926z" fill="#D0E8F9" p-id="2051"></path><path d="M993.583407 834.37037h-33.962666A30.416593 30.416593 0 0 1 929.185185 803.953778V284.444444H94.814815v519.509334C94.814815 820.754963 81.199407 834.37037 64.398222 834.37037H30.416593A30.416593 30.416593 0 0 1 0 803.953778V234.723556A45.093926 45.093926 0 0 1 45.093926 189.62963h927.080296A51.977481 51.977481 0 0 1 1024 241.455407v562.479408c0 16.820148-13.615407 30.435556-30.416593 30.435555z" fill="#C8D4DB" p-id="2052"></path><path d="M646.030222 640.682667l-15.17037 4.058074-18.962963-18.962963 2.825481-10.562371A84.66963 84.66963 0 0 0 578.37037 606.814815a85.067852 85.067852 0 0 0-60.340148 24.993185L530.962963 644.740741l-6.940444 25.903407-25.903408 6.940445-3.185778-3.185778c-1.21363 5.745778-1.896296 11.662222-1.896296 17.749333 0 19.949037 7.130074 38.058667 18.602667 52.584296L530.962963 739.555556l18.962963 18.962963-3.39437 12.686222A84.992 84.992 0 0 0 578.37037 777.481481c15.094519 0 29.051259-4.247704 41.358223-11.131259L606.814815 753.436444l6.940444-25.903407L639.658667 720.592593l12.913777 12.913777A84.309333 84.309333 0 0 0 663.703704 692.148148a84.612741 84.612741 0 0 0-17.673482-51.465481z m-51.237926 67.887407L568.888889 715.510519l-18.962963-18.962963 6.940444-25.903408L582.769778 663.703704l18.962963 18.962963-6.940445 25.903407z" fill="#ECF0F1" p-id="2053"></path><path d="M556.86637 670.644148L549.925926 696.547556l18.962963 18.962963 25.903407-6.940445 6.940445-25.903407-18.962963-18.962963zM613.755259 727.533037L606.814815 753.436444l12.913778 12.913778a85.143704 85.143704 0 0 0 32.843851-32.843852L639.658667 720.592593l-25.903408 6.940444zM630.859852 644.740741l15.17037-4.058074a85.238519 85.238519 0 0 0-31.307852-25.448297l-2.825481 10.543408 18.962963 18.962963zM524.022519 670.644148L530.962963 644.740741l-12.932741-12.932741a85.257481 85.257481 0 0 0-23.096889 42.590815l3.185778 3.185778 25.903408-6.940445zM530.962963 739.555556l-19.323259 5.176888a85.162667 85.162667 0 0 0 34.891852 26.472297L549.925926 758.518519l-18.962963-18.962963z" fill="#38454F" p-id="2054"></path></svg>