<?xml version="1.0" standalone="no"?><!DOCTYPE svg PUBLIC "-//W3C//DTD SVG 1.1//EN" "http://www.w3.org/Graphics/SVG/1.1/DTD/svg11.dtd"><svg t="1572119194896" class="icon" viewBox="0 0 1024 1024" version="1.1" xmlns="http://www.w3.org/2000/svg" p-id="2307" xmlns:xlink="http://www.w3.org/1999/xlink" width="200" height="200"><defs><style type="text/css"></style></defs><path d="M847.448276 132.413793l-194.206897-88.275862 59.374345 26.994759L759.172414 203.034483H264.827586l46.55669-131.901793L370.758621 44.137931l-194.206897 88.275862-176.551724 282.482759 141.241379 105.931034 105.931035-123.586207v582.62069h529.655172v-582.62069l88.275862 123.586207 158.896552-105.931034z" fill="#F0C419" p-id="2308"></path><path d="M425.260138 158.102069zM376.937931 70.585379c6.973793 24.770207 16.225103 44.649931 26.571035 60.592552-10.345931-15.942621-19.597241-35.822345-26.571035-60.592552zM511.982345 195.072c-5.208276 0.653241-8.474483 0.759172-8.474483 0.759172s-19.968-0.300138-44.808828-13.206069c24.840828 12.905931 44.808828 13.206069 44.808828 13.206069s3.266207-0.105931 8.474483-0.759172z" fill="#659C35" p-id="2309"></path><path d="M264.827586 203.034483h247.172414v-7.962483h-0.017655c-5.208276 0.653241-8.474483 0.776828-8.474483 0.776828s-19.968-0.300138-44.808828-13.206069a137.516138 137.516138 0 0 1-33.438896-24.523035 160.044138 160.044138 0 0 1-21.751172-26.941793c-10.328276-15.942621-19.579586-35.822345-26.571035-60.592552A312.743724 312.743724 0 0 1 370.758621 44.137931l-59.374345 26.994759L264.827586 203.034483zM520.492138 195.848828s-3.283862-0.105931-8.492138-0.776828v7.962483h247.172414l-46.55669-131.901793L653.241379 44.137931c-28.442483 150.121931-132.749241 151.710897-132.749241 151.710897zM247.172414 838.62069h529.655172v52.965517H247.172414zM594.131862 520.827586A97.015172 97.015172 0 0 0 635.586207 441.37931c0-53.530483-43.572966-97.103448-97.103448-97.103448h-52.965518A97.227034 97.227034 0 0 0 388.413793 441.37931c0 32.838621 16.436966 61.863724 41.454345 79.448276A97.015172 97.015172 0 0 0 388.413793 600.275862c0 53.530483 43.572966 97.103448 97.103448 97.103448h52.965518c53.530483 0 97.103448-43.572966 97.103448-97.103448 0-32.838621-16.436966-61.863724-41.454345-79.448276zM423.724138 441.37931c0-34.074483 27.718621-61.793103 61.793103-61.793103h52.965518c34.074483 0 61.793103 27.718621 61.793103 61.793103s-27.718621 61.793103-61.793103 61.793104h-52.965518c-34.074483 0-61.793103-27.718621-61.793103-61.793104z m114.758621 220.689656h-52.965518c-34.074483 0-61.793103-27.718621-61.793103-61.793104s27.718621-61.793103 61.793103-61.793103h52.965518c34.074483 0 61.793103 27.718621 61.793103 61.793103s-27.718621 61.793103-61.793103 61.793104z" fill="#659C35" p-id="2310"></path></svg>