<?xml version="1.0" standalone="no"?><!DOCTYPE svg PUBLIC "-//W3C//DTD SVG 1.1//EN" "http://www.w3.org/Graphics/SVG/1.1/DTD/svg11.dtd"><svg t="1570197551494" class="icon" viewBox="0 0 1024 1024" version="1.1" xmlns="http://www.w3.org/2000/svg" p-id="2323" xmlns:xlink="http://www.w3.org/1999/xlink" width="200" height="200"><defs><style type="text/css"></style></defs><path d="M737.941041 313.636454 539.219346 512.051164l198.41471 198.41471c7.469971 7.469971 7.469971 19.749375 0 27.219346-3.888478 3.888478-8.697911 5.525732-13.712002 5.525732-5.01409 0-9.925852-1.944239-13.712002-5.525732L512 539.270511 313.58529 737.68522c-3.888478 3.888478-8.697911 5.525732-13.712002 5.525732-5.01409 0-9.925852-1.944239-13.712002-5.525732-7.469971-7.469971-7.469971-19.749375 0-27.219346l198.41471-198.41471L286.161287 313.636454c-7.469971-7.469971-7.469971-19.749375 0-27.219346 7.469971-7.469971 19.749375-7.469971 27.219346 0L511.795343 484.729489 710.210053 286.417108c7.469971-7.469971 19.749375-7.469971 27.219346 0C745.411012 293.887079 745.411012 305.859498 737.941041 313.636454zM1013.409014 512.051164c0 276.491256-224.917758 501.409014-501.409014 501.409014s-501.409014-224.917758-501.409014-501.409014 224.917758-501.409014 501.409014-501.409014S1013.409014 235.559908 1013.409014 512.051164zM955.593485 512.051164c0-244.667133-198.926352-443.593485-443.593485-443.593485S68.508844 267.384031 68.508844 512.051164s198.926352 443.593485 443.593485 443.593485S955.593485 756.718297 955.593485 512.051164z" p-id="2324" fill="#ffffff"></path></svg>