<?xml version="1.0" encoding="iso-8859-1"?>
<!-- Generator: Adobe Illustrator 19.0.0, SVG Export Plug-In . SVG Version: 6.00 Build 0)  -->
<svg version="1.1" id="Layer_1" xmlns="http://www.w3.org/2000/svg" xmlns:xlink="http://www.w3.org/1999/xlink" x="0px" y="0px"
	 viewBox="0 0 512 512" style="enable-background:new 0 0 512 512;" xml:space="preserve">
<path style="fill:#5BD821;" d="M54.559,425.426c-2.095-6.709-3.571-13.665-4.356-20.787c-1.032-0.299-2.085-0.557-3.158-0.774
	c-2.529-0.516-5.15-0.784-7.824-0.784c-2.683,0-5.316,0.268-7.845,0.784c-8.267,1.683-15.596,5.955-21.076,11.953
	C3.901,422.784,0,432.083,0,442.301c0,21.665,17.557,39.221,39.221,39.221c14.708,0,27.528-8.093,34.237-20.065
	C65.138,450.713,58.657,438.523,54.559,425.426z M39.221,458.816c-9.124,0-16.515-7.39-16.515-16.515
	c0-6.286,3.509-11.746,8.67-14.543c2.332-1.259,5.006-1.972,7.845-1.972c2.838,0,5.501,0.712,7.834,1.972
	c5.171,2.787,8.68,8.257,8.68,14.543C55.736,451.426,48.346,458.816,39.221,458.816z"/>
<path style="fill:#00CC00;" d="M50.203,404.639c-1.032-0.299-2.085-0.557-3.158-0.774c-2.529-0.516-5.15-0.784-7.824-0.784
	c-2.683,0-5.316,0.268-7.845,0.784c-8.267,1.683-15.596,5.955-21.076,11.953C3.901,422.784,0,432.083,0,442.301v-52.98
	C0,367.657,17.557,350.1,39.221,350.1c3.571,0,7.029,0.485,10.321,1.383v41.1c0,0.909,0.01,1.806,0.031,2.715
	c0.051,2.209,0.165,4.407,0.361,6.585C50.007,402.801,50.101,403.72,50.203,404.639z"/>
<path style="fill:#F47156;" d="M512,227.985v50.381H230.668c0.166-0.929,0.248-1.888,0.248-2.859v-71.064h257.542
	C501.46,204.444,512,214.984,512,227.985z"/>
<path style="fill:#FFAA0E;" d="M512,278.366v25.423c0,11.222-7.921,20.884-18.925,23.084l-84.857,16.971
	c-60.741,12.148-113.938,49.1-145.511,102.4c-0.598,1.022-1.198,2.044-1.786,3.066c-19.683,34.349-56.706,57.491-99.137,57.501
	c-36.094,0.01-69.164-17.99-90.333-45.352c-12.582-16.246-20.953-35.785-23.254-56.82c-0.351-3.086-0.557-6.203-0.629-9.341
	c-0.021-0.909-0.031-1.806-0.031-2.715c0-2.425,0.072-4.83,0.227-7.225c0.092-1.589,0.227-3.168,0.393-4.737
	c0.898-8.65,2.766-17.02,5.501-24.989c15.348-44.95,57.955-77.267,108.107-77.267h16.587c1.352,7.679,8.05,13.511,16.122,13.511
	h20.075c8.072,0,14.77-5.832,16.122-13.511L512,278.366L512,278.366z"/>
<path style="fill:#FF4538;" d="M178.102,275.507c0,0.97,0.082,1.93,0.248,2.859h-16.587c-50.152,0-92.758,32.316-108.107,77.267
	c-2.735,7.968-4.603,16.339-5.501,24.989c-0.166,1.569-0.299,3.148-0.393,4.737c-0.155,2.394-0.227,4.8-0.227,7.225v-73.912
	c0-63.084,51.143-114.227,114.227-114.227h16.339v71.062H178.102z"/>
<path style="fill:#F7301B;" d="M230.916,204.444v71.064c0,0.97-0.082,1.93-0.248,2.859c-1.352,7.679-8.05,13.511-16.122,13.511
	h-20.075c-8.072,0-14.77-5.832-16.122-13.511c-0.165-0.929-0.248-1.888-0.248-2.859v-71.064h0.02
	c0.34,8.732,7.534,15.699,16.349,15.699h20.075c8.814,0,16.009-6.967,16.349-15.699H230.916z"/>
<path style="fill:#FF8814;" d="M182.343,504.953c-6.668,1.228-13.542,1.858-20.56,1.858c-36.094,0.01-69.164-17.99-90.333-45.352
	c-8.319-10.745-14.801-22.935-18.899-36.033c-2.095-6.709-3.571-13.665-4.356-20.787c-0.103-0.919-0.196-1.837-0.268-2.756
	c-0.196-2.177-0.309-4.376-0.361-6.585c-0.021-0.909-0.031-1.806-0.031-2.715c0-2.425,0.072-4.83,0.227-7.225
	c0.092-1.589,0.227-3.168,0.393-4.737c0.113-1.104,0.248-2.209,0.393-3.303c0.516-3.912,1.239-7.761,2.157-11.529
	c0.825-3.447,1.806-6.843,2.952-10.157c0.609-1.796,1.27-3.561,1.972-5.316c0.155-0.393,0.309-0.784,0.475-1.177
	c0.434-1.063,0.887-2.126,1.362-3.168c0.258-0.588,0.526-1.167,0.795-1.744c0.217-0.465,0.434-0.929,0.661-1.383
	c0.991-2.064,2.054-4.098,3.178-6.09c0.836-1.486,1.714-2.963,2.611-4.417c0.31-0.485,0.609-0.97,0.919-1.445
	c4.923-7.679,10.755-14.719,17.33-20.983c20.488-19.549,48.252-31.542,78.804-31.542h16.587c0.145,0.826,0.351,1.631,0.619,2.405
	c-39.686,8.247-71.827,37.095-84.719,74.861c-2.735,7.968-4.603,16.339-5.501,24.989c-0.165,1.569-0.299,3.148-0.393,4.737
	c-0.155,2.394-0.227,4.8-0.227,7.225c0,0.909,0.01,1.806,0.031,2.715c0.072,3.137,0.279,6.254,0.629,9.341
	c2.302,21.035,10.673,40.573,23.254,56.82C129.219,483.66,154.239,499.699,182.343,504.953z"/>
<path style="fill:#F7301B;" d="M178.102,204.444v1.538c-51.339,8.484-91.138,51.205-95.143,103.927c0,0.01,0,0.01,0,0.021
	c-6.565,6.265-12.396,13.304-17.33,20.963c-0.31,0.475-0.609,0.96-0.919,1.445c-0.898,1.456-1.775,2.931-2.611,4.417
	c-1.114,1.992-2.178,4.026-3.178,6.09c-0.227,0.454-0.444,0.919-0.661,1.383c-0.268,0.578-0.537,1.156-0.795,1.744
	c-0.475,1.042-0.929,2.105-1.362,3.168c-0.165,0.393-0.32,0.784-0.475,1.177c-0.702,1.755-1.362,3.52-1.972,5.316
	c-1.145,3.313-2.126,6.709-2.952,10.157c-0.919,3.768-1.641,7.617-2.157,11.529c-0.145,1.094-0.279,2.199-0.393,3.303
	c-0.166,1.569-0.299,3.148-0.393,4.737c-0.155,2.394-0.227,4.8-0.227,7.225v-73.912c0-63.084,51.143-114.227,114.227-114.227h16.339
	V204.444z"/>
<circle style="fill:#5BD821;" cx="162.103" cy="392.593" r="68.809"/>
<path style="fill:#00CC00;" d="M125.638,392.588c0-32.43,22.441-59.602,52.637-66.878c-5.188-1.25-10.599-1.93-16.171-1.93
	c-38.001,0-68.808,30.806-68.808,68.808s30.806,68.808,68.808,68.808c5.572,0,10.983-0.68,16.171-1.93
	C148.078,452.19,125.638,425.018,125.638,392.588z"/>
<path style="fill:#FFB64C;" d="M512,278.366v25.422c0,11.22-7.917,20.881-18.93,23.089l-84.852,16.968
	c-7.256,1.456-14.408,3.262-21.428,5.408c-35.093-14.533-64.788-39.438-85.286-70.888H512z"/>
<path style="fill:#FF4D48;" d="M512,227.987v50.379H301.505c-14.275-21.892-24.08-46.962-28.136-73.922h215.088
	C501.462,204.444,512,214.982,512,227.987z"/>
<path style="fill:#FF4538;" d="M301.505,278.366h-70.836c0.166-0.929,0.248-1.888,0.248-2.859v-71.064h42.451
	C277.425,231.403,287.23,256.474,301.505,278.366z"/>
<g>
	<path style="fill:#ED1304;" d="M214.835,291.867c-0.092,0.01-0.196,0.01-0.289,0.01h-20.075c-8.072,0-14.77-5.832-16.122-13.511
		c-0.165-0.929-0.248-1.888-0.248-2.859v-71.064h0.02c0.34,8.732,7.534,15.699,16.349,15.699h4.273v55.364
		c0,0.97,0.082,1.93,0.248,2.859C200.324,285.953,206.888,291.743,214.835,291.867z"/>
	<path style="fill:#ED1304;" d="M263.253,261.161c-4.276,0-7.741-3.466-7.741-7.741v-27.352c0-4.275,3.466-7.741,7.741-7.741
		c4.275,0,7.741,3.466,7.741,7.741v27.352C270.995,257.694,267.528,261.161,263.253,261.161z"/>
</g>
<g>
	<path style="fill:#F7301B;" d="M323.634,261.161c-4.276,0-7.741-3.466-7.741-7.741v-27.352c0-4.275,3.466-7.741,7.741-7.741
		c4.275,0,7.741,3.466,7.741,7.741v27.352C331.374,257.694,327.909,261.161,323.634,261.161z"/>
	<path style="fill:#F7301B;" d="M384.014,261.161c-4.276,0-7.741-3.466-7.741-7.741v-27.352c0-4.275,3.466-7.741,7.741-7.741
		c4.276,0,7.741,3.466,7.741,7.741v27.352C391.755,257.694,388.29,261.161,384.014,261.161z"/>
	<path style="fill:#F7301B;" d="M444.395,261.161c-4.276,0-7.741-3.466-7.741-7.741v-27.352c0-4.275,3.466-7.741,7.741-7.741
		c4.276,0,7.741,3.466,7.741,7.741v27.352C452.136,257.694,448.67,261.161,444.395,261.161z"/>
</g>
<g>
	<path style="fill:#575A60;" d="M204.509,165.687c-4.275,0-7.741-3.466-7.741-7.741V12.93c0-4.276,3.466-7.741,7.741-7.741
		s7.741,3.466,7.741,7.741v145.016C212.25,162.221,208.784,165.687,204.509,165.687z"/>
	<path style="fill:#575A60;" d="M245.707,172.396c-1.981,0-3.962-0.756-5.473-2.267c-3.023-3.023-3.023-7.925,0-10.948
		l96.764-96.764c3.023-3.023,7.925-3.023,10.948,0c3.024,3.023,3.024,7.925,0,10.948l-96.764,96.764
		C249.669,171.64,247.688,172.396,245.707,172.396z"/>
	<path style="fill:#575A60;" d="M160.813,172.396c-1.981,0-3.962-0.756-5.473-2.267L58.576,73.365
		c-3.024-3.023-3.024-7.925,0-10.948c3.023-3.023,7.925-3.023,10.948,0l96.764,96.764c3.024,3.023,3.024,7.924,0,10.948
		C164.776,171.64,162.794,172.396,160.813,172.396z"/>
</g>
<g>
</g>
<g>
</g>
<g>
</g>
<g>
</g>
<g>
</g>
<g>
</g>
<g>
</g>
<g>
</g>
<g>
</g>
<g>
</g>
<g>
</g>
<g>
</g>
<g>
</g>
<g>
</g>
<g>
</g>
</svg>
