<svg xmlns="http://www.w3.org/2000/svg" width="163.5" height="323.7" viewBox="0 0 54.5 107.9">
  <title>Juventus FC 2017 logo</title>
  <path id="j-icon" d="M43.2,67c0,20.9-8.8,26.2-26.8,35a83.82016,83.82016,0,0,0,10.7,5.9C40.9,101.4,54.2,92.8,54.2,70V21.7h-11ZM32.7,21.7H0v9.6H21.7V62c0,14-.9,15.3-19.1,23.5a35.06586,35.06586,0,0,0,5.5,9.2c20.6-9.2,24.6-13.9,24.6-29.8Z"/>
  <path id="wordmark" d="M4.3,0V8.5c0,2.2-1.3,3.7-3.9,3.7H0V10.4H.3A1.69255,1.69255,0,0,0,2.2,8.5V1.8H.3V0ZM8,10.4H9.9V0h2V10.2c0,1.3-.7,1.9-2,1.9H8a1.767,1.767,0,0,1-2-1.9V0H8Zm9.4-2.9V.1h2V7.6c0,3.4-1.8,4.6-4.9,4.6h-1V0h2V10.1h.1C16.9,10.2,17.4,9,17.4,7.5Zm5.7-5.6V5.1h2.3L25,6.8H23v3.5h3l-.3,1.8H21.1V0h4.5l.3,1.8H23.1ZM31.2,0h1.9V12.1H31.2V8L29.3,3.8h-.1v8.3H27.3V0h1.9l1.9,4.6h.1Zm8.9,1.9H38.2V12.2h-2V1.9H34.3L34.6.1h5.2Zm3,8.5H45V.1h2V10.3c0,1.3-.7,1.9-2,1.9H43.1a1.767,1.767,0,0,1-2-1.9V.1h2Zm5.4-2.2h2v2.4h1.8V8.9a1.62313,1.62313,0,0,0-.8-1.6L49.6,6.1a2.41788,2.41788,0,0,1-1-1.9V2A1.73494,1.73494,0,0,1,50.5.1h1.9A1.69255,1.69255,0,0,1,54.3,2V3.5L52.4,4V1.6H50.7V3.4a1.50981,1.50981,0,0,0,.8,1.4l1.8,1.1a2.39886,2.39886,0,0,1,1.2,2.2v2.3a1.66111,1.66111,0,0,1-1.9,1.8H50.8c-1.3,0-2-.5-2-1.8V8.2Z"/>
</svg>
