<?xml version="1.0" standalone="no"?><!DOCTYPE svg PUBLIC "-//W3C//DTD SVG 1.1//EN" "http://www.w3.org/Graphics/SVG/1.1/DTD/svg11.dtd"><svg t="1594647070243" class="icon" viewBox="0 0 1316 1024" version="1.1" xmlns="http://www.w3.org/2000/svg" p-id="4539" xmlns:xlink="http://www.w3.org/1999/xlink" width="257.03125" height="200"><defs><style type="text/css"></style></defs><path d="M83.646171 1019.260343a58.514286 58.514286 0 0 1-58.514285-58.514286v-877.714286a58.514286 58.514286 0 0 1 58.514285-58.514285h1170.285715a58.514286 58.514286 0 0 1 58.514285 58.514285v877.714286a58.514286 58.514286 0 0 1-58.514285 58.514286h-1170.285715" fill="#8DC04D" p-id="4540"></path><path d="M668.789029 346.346057a29.257143 29.257143 0 0 0 29.257142-29.257143v-204.8a29.257143 29.257143 0 1 0-58.514285 0v204.8a29.257143 29.257143 0 0 0 29.257143 29.257143M668.789029 697.431771a29.257143 29.257143 0 0 0-29.257143 29.257143v204.8a29.257143 29.257143 0 1 0 58.514285 0v-204.8a29.257143 29.257143 0 0 0-29.257142-29.257143M668.789029 404.860343c-64.541257 0-117.028571 52.487314-117.028572 117.028571s52.487314 117.028571 117.028572 117.028572 117.028571-52.487314 117.028571-117.028572-52.487314-117.028571-117.028571-117.028571z m0 175.542857c-32.241371 0-58.514286-26.272914-58.514286-58.514286 0-32.270629 26.272914-58.514286 58.514286-58.514285 32.270629 0 58.514286 26.243657 58.514285 58.514285 0 32.241371-26.243657 58.514286-58.514285 58.514286zM259.189029 409.014857V287.831771a29.257143 29.257143 0 0 0-29.257143-29.257142h-117.028572a29.257143 29.257143 0 1 0 0 58.514285h87.771429v409.6h-87.771429a29.257143 29.257143 0 1 0 0 58.514286h117.028572a29.257143 29.257143 0 0 0 29.257143-29.257143v-121.183086c50.351543-13.077943 87.771429-58.514286 87.771428-112.874057 0-54.389029-37.419886-99.796114-87.771428-112.874057M1224.674743 726.688914h-87.771429v-409.6h87.771429a29.257143 29.257143 0 1 0 0-58.514285h-117.028572a29.257143 29.257143 0 0 0-29.257142 29.257142v121.183086c-50.322286 13.077943-87.771429 58.485029-87.771429 112.874057 0 54.359771 37.449143 99.796114 87.771429 112.874057v121.183086a29.257143 29.257143 0 0 0 29.257142 29.257143h117.028572a29.257143 29.257143 0 1 0 0-58.514286" fill="#FFFFFF" p-id="4541"></path></svg>