<svg viewBox="0 0 1024 1024" xmlns="http://www.w3.org/2000/svg" width="200" height="200">
<style>
path{
	fill:green;
}
@media (prefers-color-scheme : dark){
	path{
		fill:blue;
		opacity:.5
	}
}
</style>
<path d="M406.016 268l-28-26.016 42.016-42.016-42.016-42.016 28-28 42.016 42.016 40-42.016 28 28-42.016 42.016 42.016 42.016-28 26.016-40-42.016zM656 268l-26.016-26.016 40-42.016-40-42.016 26.016-28 42.016 42.016 42.016-42.016 28 28-42.016 42.016 42.016 42.016-28 26.016-42.016-42.016zm-17.984 186.016l-28 28L568 440l-42.016 42.016-26.016-28L541.984 412l-42.016-42.016 26.016-26.016 42.016 40 42.016-40 28 26.016L596 412zm45.984 260c-42.016 0-78.016-34.016-78.016-76S641.984 560 684 560s78.016 36 78.016 78.016-36 76-78.016 76zm0-116c-22.016 0-38.016 18.016-38.016 40s16 38.016 38.016 38.016 38.016-16 38.016-38.016-16-40-38.016-40zm-389.984-116l-26.016-28L310.016 412 268 369.984l26.016-26.016 42.016 40 42.016-40 28 26.016L364.032 412l42.016 42.016-28 28L336.032 440zM452 560c42.016 0 78.016 36 78.016 78.016s-36 76-78.016 76-76-34.016-76-76S410.016 560 452 560zm0 116c22.016 0 38.016-16 38.016-38.016s-16-40-38.016-40-38.016 18.016-38.016 40S429.984 676 452 676zM336 870.016c42.016 0 78.016 34.016 78.016 76s-36 78.016-78.016 78.016-76-36-76-78.016v-4l-180-96 14.016 66.016-36 8-26.016-116 92-44 16 34.016-38.016 20L272 904.064c14.016-20 36-34.016 64-34.016zm0 116c22.016 0 40-18.016 40-40S357.984 908 336 908s-38.016 16-38.016 38.016 16 40 38.016 40zM704 812c42.016 0 76 34.016 76 76s-34.016 78.016-76 78.016-78.016-36-78.016-78.016 36-76 78.016-76zm0 116c22.016 0 38.016-18.016 38.016-40s-16-38.016-38.016-38.016-40 16-40 38.016 18.016 40 40 40zM62.016 482.016l-26.016-28L78.016 412 36 369.984l26.016-26.016 42.016 40 42.016-40 28 26.016L132.032 412l42.016 42.016-28 28L104.032 440zm81.984 156C144 596 178.016 560 220 560s78.016 36 78.016 78.016-36 76-78.016 76-76-34.016-76-76zm76-40c-22.016 0-38.016 18.016-38.016 40s16 38.016 38.016 38.016 40-16 40-38.016-18.016-40-40-40zM972 88l-58.016-32 76 422.016-178.016 328-36-18.016 174.016-316-76-408-48 42.016L799.968 76l88-76 104 54.016z" /></svg>
