<?xml version="1.0" standalone="no"?><!DOCTYPE svg PUBLIC "-//W3C//DTD SVG 1.1//EN" "http://www.w3.org/Graphics/SVG/1.1/DTD/svg11.dtd"><svg t="1572119203599" class="icon" viewBox="0 0 1024 1024" version="1.1" xmlns="http://www.w3.org/2000/svg" p-id="2434" xmlns:xlink="http://www.w3.org/1999/xlink" width="200" height="200"><defs><style type="text/css"></style></defs><path d="M658.285714 45.714286l-18.285714 16v905.673143a351.926857 351.926857 0 0 0 36.571429-9.234286V46.464c-11.446857-0.896-18.285714-0.749714-18.285715-0.749714zM493.714286 156.909714v821.174857a846.153143 846.153143 0 0 0 36.571428 0V156.909714a31.652571 31.652571 0 0 1-36.571428 0zM420.571429 93.714286V973.165714c11.373714 1.389714 23.552 2.523429 36.553142 3.382857L457.142857 125.714286l-36.571428-32zM365.714286 45.714286s-6.838857-0.146286-18.285715 0.731428v911.689143c10.861714 3.401143 22.966857 6.528 36.571429 9.234286V61.714286L365.714286 45.714286zM566.857143 125.714286v850.816a630.436571 630.436571 0 0 0 36.571428-3.382857V93.714286l-36.571428 32zM127.835429 156.233143c0.018286 0.292571 0.164571 0.530286 0.164571 0.822857V448h36.571429V119.990857a303.049143 303.049143 0 0 0-36.736 36.242286zM713.142857 51.547429v892.050285c16.786286-8.484571 28.470857-17.481143 36.571429-25.782857V60.763429a345.472 345.472 0 0 0-36.571429-9.216zM274.285714 60.763429v857.051428c8.100571 8.301714 19.785143 17.298286 36.571429 25.782857V51.547429c-11.136 2.157714-23.424 5.138286-36.571429 9.216zM36.571429 448h54.857142V209.042286C59.574857 266.313143 37.723429 343.552 36.571429 448zM201.142857 93.677714V448h36.571429V74.550857c-12.013714 5.339429-24.283429 11.629714-36.571429 19.126857zM896.164571 156.233143A303.049143 303.049143 0 0 0 859.428571 119.990857V448h36.571429V157.056c0-0.292571 0.146286-0.530286 0.164571-0.822857zM786.285714 74.550857V448h36.571429V93.677714a318.262857 318.262857 0 0 0-36.571429-19.126857zM987.428571 448c-1.152-104.448-23.003429-181.705143-54.857142-238.957714V448h54.857142z" fill="#E6E6E6" p-id="2435"></path><path d="M932.571429 209.042286a324.077714 324.077714 0 0 0-36.406858-52.790857c-0.018286 0.274286-0.164571 0.512-0.164571 0.804571V448h36.571429V209.042286zM822.857143 93.677714V448h36.571428V119.990857a306.651429 306.651429 0 0 0-36.571428-26.313143zM164.571429 119.990857V448h36.571428V93.677714a306.651429 306.651429 0 0 0-36.571428 26.313143zM127.835429 156.233143A325.065143 325.065143 0 0 0 91.428571 209.042286V448h36.571429V157.056c0-0.292571-0.146286-0.530286-0.164571-0.822857zM490.788571 155.154286L457.142857 125.714286l-0.018286 850.816c11.538286 0.749714 23.68 1.28 36.589715 1.536V156.909714c-0.950857-0.676571-2.048-0.969143-2.925715-1.755428zM384 61.714286v905.673143c11.154286 2.230857 23.387429 4.150857 36.571429 5.778285V93.714286l-36.571429-32zM310.857143 51.547429v892.050285c10.185143 5.156571 22.272 10.093714 36.571428 14.555429V46.464c-9.362286 0.731429-21.851429 2.212571-36.571428 5.083429zM237.714286 74.550857V448h18.285714v438.857143s1.700571 13.952 18.285714 30.939428V60.763429c-11.684571 3.638857-23.972571 8.192-36.571428 13.787428zM533.211429 155.154286c-0.877714 0.786286-1.974857 1.078857-2.925715 1.755428v821.174857a811.428571 811.428571 0 0 0 36.571429-1.536V125.714286l-33.645714 29.44zM603.428571 93.714286V973.165714c13.184-1.627429 25.417143-3.547429 36.571429-5.778285V61.714286l-36.571429 32zM749.714286 60.763429v857.051428c16.585143-16.987429 18.285714-30.939429 18.285714-30.939428v-438.857143h18.285714V74.550857a337.590857 337.590857 0 0 0-36.571428-13.787428zM676.571429 46.464v911.689143a241.389714 241.389714 0 0 0 36.571428-14.555429V51.547429a324.973714 324.973714 0 0 0-36.571428-5.083429z" fill="#38454F" p-id="2436"></path><path d="M256 539.428571H41.179429A41.179429 41.179429 0 0 1 0 498.249143v-9.051429A41.197714 41.197714 0 0 1 41.179429 448H256v91.428571zM982.820571 539.428571H768v-91.428571h214.820571A41.179429 41.179429 0 0 1 1024 489.179429v9.051428a41.179429 41.179429 0 0 1-41.179429 41.197714z" fill="#DF4D60" p-id="2437"></path><path d="M512 163.126857c-7.570286 0-15.140571-2.651429-21.211429-7.972571L365.714286 45.714286s-30.628571-0.804571-73.142857 9.892571V210.285714l219.428571-47.158857zM512 163.126857c7.570286 0 15.140571-2.651429 21.211429-7.972571L658.285714 45.714286s30.628571-0.804571 73.142857 9.892571V210.285714L512 163.126857z" fill="#38454F" p-id="2438"></path></svg>