<?xml version="1.0" standalone="no"?><!DOCTYPE svg PUBLIC "-//W3C//DTD SVG 1.1//EN" "http://www.w3.org/Graphics/SVG/1.1/DTD/svg11.dtd"><svg t="1595340101401" class="icon" viewBox="0 0 1024 1024" version="1.1" xmlns="http://www.w3.org/2000/svg" p-id="9188" xmlns:xlink="http://www.w3.org/1999/xlink" width="200" height="200"><defs><style type="text/css"></style></defs><path d="M593.7664 678.741333l-65.6384 69.6832-0.768-259.6864a28.3648 28.3648 0 0 0-26.9824-29.115733h-0.085333a28.3648 28.3648 0 0 0-26.914134 29.303467l0.768 258.798933-65.262933-69.137067a25.9072 25.9072 0 0 0-38.161067 0 29.917867 29.917867 0 0 0 0 40.533334l111.547734 118.4256a25.924267 25.924267 0 0 0 38.1952 0l111.530666-118.408534a29.866667 29.866667 0 0 0 0-40.4992 25.9072 25.9072 0 0 0-38.161066 0m235.758933-183.944533c-4.369067 59.204267-51.6608 122.88-145.169067 122.88-42.564267 0-65.024-0.341333-65.024-0.341333a28.3648 28.3648 0 0 1-28.330666-28.177067 28.672 28.672 0 0 1 28.535466-28.091733h0.221867s22.391467 0.8192 64.580267 0.8192c57.2928 0 85.6064-35.2768 88.2176-70.894934 2.696533-36.573867-21.111467-77.175467-80.384-85.333333a28.654933 28.654933 0 0 1-19.5072-11.776 26.914133 26.914133 0 0 1-4.232534-21.896533c7.543467-31.214933-0.375467-55.808-21.725866-67.4816a60.672 60.672 0 0 0-70.3488 12.817066 29.098667 29.098667 0 0 1-24.354134 7.5264 28.484267 28.484267 0 0 1-20.821333-14.370133c-39.901867-72.8576-102.007467-76.8-143.069867-57.924267a88.132267 88.132267 0 0 0-46.318933 119.261867A26.862933 26.862933 0 0 1 341.333333 394.103467a28.296533 28.296533 0 0 1-17.4592 14.677333c-82.3808 24.576-80.776533 77.8752-78.336 93.6448a68.0448 68.0448 0 0 0 66.286934 59.067733l86.869333 0.273067a27.306667 27.306667 0 1 1-0.136533 54.442667h-0.1536l-86.715734 0.170666a123.511467 123.511467 0 0 1-122.538666-105.642666c-7.406933-47.616 13.073067-111.086933 90.914133-144.964267a142.779733 142.779733 0 0 1 83.746133-163.396267 162.372267 162.372267 0 0 1 200.618667 54.971734 115.5072 115.5072 0 0 1 110.4384-1.2288 104.823467 104.823467 0 0 1 53.384533 100.573866 133.393067 133.393067 0 0 1 101.341867 138.0864" fill="#ffffff" p-id="9189"></path></svg>